<svg width="1274" height="283" viewBox="0 0 1274 283" fill="none" xmlns="http://www.w3.org/2000/svg">
<path fill-rule="evenodd" clip-rule="evenodd" d="M48.94 174.22L50.28 198.67C50.37 200.33 50.99 201.9 52.04 203.18C59.4 212.09 92.4 243.19 166.77 243.19C241.14 243.19 273.74 212.5 281.38 203.35C282.53 201.97 283.19 200.26 283.3 198.45L284.63 174.24C293.48 169.38 302.62 163.89 302.62 163.89C316.99 156.1 333.03 167.29 333.06 183.69C333.11 210.23 312.37 237.5 284.4 254.69C252.86 274.07 205.78 282.11 166.79 282.11C127.8 282.11 80.72 274.07 49.18 254.69C21.21 237.5 0.469988 210.24 0.519988 183.69C0.549988 167.29 16.59 156.1 30.96 163.89C30.96 163.89 40.08 169.37 48.93 174.22H48.94Z" fill="#fff"/>
<path fill-rule="evenodd" clip-rule="evenodd" d="M166.79 0.73999C227.6 0.73999 244.09 2.16 268.81 5C280.21 6.31 289.34 14.79 288.49 26.28L279.38 150.35C276.53 151.18 273.42 152.22 269.94 153.39C251.67 159.52 223.03 169.13 166.8 169.13C110.57 169.13 81.92 159.52 63.66 153.39C60.17 152.22 57.06 151.18 54.21 150.35L45.1 26.29C44.26 14.8 53.37 6.12001 64.78 5.01001C89.2 2.64001 114.63 0.75 166.8 0.75L166.79 0.73999ZM58.56 209.79L58.59 210.23L59.22 210.37C59 210.17 58.78 209.98 58.56 209.79ZM274.42 210.36L274.99 210.23L275.02 209.83C274.83 210 274.63 210.18 274.42 210.36Z" fill="#fff"/>
<path d="M598.24 221.66C598.24 231.86 606.54 240.16 616.74 240.16H714.24C724.72 240.16 733.24 231.64 733.24 221.16C733.24 210.68 724.72 202.16 714.24 202.16H643.74C640.16 202.16 637.24 199.24 637.24 195.66V167.16C637.24 163.58 640.16 160.66 643.74 160.66H693.93C704.13 160.66 712.43 152.36 712.43 142.16V141.16C712.43 130.96 704.13 122.66 693.93 122.66H643.74C640.16 122.66 637.24 119.74 637.24 116.16V87.66C637.24 84.08 640.16 81.16 643.74 81.16H714.24C724.72 81.16 733.24 72.64 733.24 62.16C733.24 51.68 724.72 43.16 714.24 43.16H616.74C606.54 43.16 598.24 51.46 598.24 61.66V221.66Z" fill="#fff"/>
<path d="M883.76 48.58C880.27 45.09 875.62 43.16 870.68 43.16H820.92C816.05 43.16 811.45 45.04 807.97 48.45L783.8 72.16C780.28 75.62 778.25 80.43 778.26 85.37V197.37C778.28 202.31 780.2 206.95 783.69 210.45L807.96 234.73C811.45 238.23 816.1 240.15 821.04 240.15H870.65C875.54 240.15 880.32 238.16 883.77 234.69L907.87 210.44C911.34 206.95 913.25 202.32 913.25 197.4V141.15C913.25 130.95 904.95 122.65 894.75 122.65H854.8C844.6 122.65 836.3 130.95 836.3 141.15V142.15C836.3 152.35 844.6 160.65 854.8 160.65H867.75C871.33 160.65 874.25 163.57 874.25 167.15V186.82C874.25 188.56 873.57 190.19 872.35 191.42L864.58 200.19C863.29 201.48 861.66 202.16 859.92 202.16H832.13C830.39 202.16 828.76 201.48 827.53 200.26L819.15 191.88C817.92 190.65 817.25 189.02 817.25 187.28V94.03C817.25 92.29 817.93 90.66 819.15 89.43L825.53 83.05C826.76 81.82 828.39 81.15 830.13 81.15H860.92C862.66 81.15 864.29 81.83 865.52 83.05L881.22 98.75C888.43 105.96 900.17 105.96 907.38 98.75L907.59 98.54C911.08 95.05 913.01 90.4 913.01 85.46C913.01 80.52 911.09 75.87 907.59 72.38L883.77 48.57L883.76 48.58Z" fill="#fff"/>
<path d="M1273.24 62.66C1273.24 51.91 1264.49 43.16 1253.74 43.16C1242.99 43.16 1234.24 51.91 1234.24 62.66V138.73C1234.24 140.33 1233.21 141.68 1231.67 142.1C1230.13 142.53 1228.55 141.89 1227.73 140.51L1175.75 53.01C1172.13 46.92 1165.49 43.14 1158.41 43.14C1147.29 43.14 1138.24 52.19 1138.24 63.31V220.64C1138.24 231.39 1146.99 240.14 1157.74 240.14C1168.49 240.14 1177.24 231.39 1177.24 220.64V144.66C1177.24 143.06 1178.28 141.7 1179.82 141.28C1180.13 141.2 1180.45 141.15 1180.76 141.15C1181.98 141.15 1183.11 141.79 1183.76 142.89L1234.59 229.86C1238.29 236.2 1245.15 240.13 1252.5 240.13C1263.94 240.13 1273.24 230.83 1273.24 219.39V62.63V62.66Z" fill="#fff"/>
<path d="M1093.24 220.66C1093.24 210.46 1084.94 202.16 1074.74 202.16H1003.74C1000.16 202.16 997.24 199.24 997.24 195.66V167.16C997.24 163.58 1000.16 160.66 1003.74 160.66H1053.93C1064.13 160.66 1072.43 152.36 1072.43 142.16V141.16C1072.43 130.96 1064.13 122.66 1053.93 122.66H1003.74C1000.16 122.66 997.24 119.74 997.24 116.16V87.66C997.24 84.08 1000.16 81.16 1003.74 81.16H1074.74C1084.94 81.16 1093.24 72.86 1093.24 62.66V61.66C1093.24 51.46 1084.94 43.16 1074.74 43.16H976.74C966.54 43.16 958.24 51.46 958.24 61.66V221.66C958.24 231.86 966.54 240.16 976.74 240.16H1074.74C1084.94 240.16 1093.24 231.86 1093.24 221.66V220.66Z" fill="#fff"/>
<path d="M417.24 231.66C417.24 236.9 421.5 241.16 426.74 241.16H505.46C510.67 241.16 515.57 239.13 519.25 235.45L548.53 206.17C552.21 202.49 554.24 197.59 554.24 192.38V90.95C554.24 85.74 552.21 80.85 548.53 77.16L519.25 47.88C515.57 44.2 510.67 42.17 505.46 42.17H426.74C421.5 42.17 417.24 46.43 417.24 51.67V231.67V231.66ZM458.24 87.66C458.24 84.63 460.71 82.16 463.74 82.16H495.67C497.14 82.16 498.52 82.73 499.56 83.77L511.63 95.84C512.67 96.88 513.24 98.26 513.24 99.73V183.59C513.24 185.06 512.67 186.44 511.63 187.48L499.56 199.55C498.52 200.59 497.14 201.16 495.67 201.16H463.74C460.71 201.16 458.24 198.69 458.24 195.66V87.66Z" fill="#fff"/>
</svg>
